<svg width="169" height="48" viewBox="0 0 169 48" fill="none" xmlns="http://www.w3.org/2000/svg">
<rect y="19.2" width="9.59998" height="9.59999" fill="#1A5AFF"/>
<rect x="28.8" y="28.8" width="9.6" height="9.59999" transform="rotate(180 28.8 28.8)" fill="#1A5AFF"/>
<path d="M9.6001 19.2001L19.2001 9.6001V19.2001L9.6001 28.8001V19.2001Z" fill="#BBCEFF"/>
<path d="M19.2 28.7999L9.59997 38.3999L9.59997 28.7999L19.2 19.1999L19.2 28.7999Z" fill="#7EA2FF"/>
<path d="M0 19.2L19.2 0V9.59999L9.59998 19.2H0Z" fill="#4277FF"/>
<path d="M28.7999 28.8L9.59995 48L9.59995 38.4L19.1999 28.8L28.7999 28.8Z" fill="#4277FF"/>
<path d="M49.708 34.28C48.196 34.28 46.7306 34.0654 45.312 33.636C43.912 33.2067 42.8013 32.6374 41.98 31.928L43.24 29.1C44.0426 29.7347 45.0226 30.2574 46.18 30.668C47.356 31.06 48.532 31.256 49.708 31.256C51.164 31.256 52.2466 31.0227 52.956 30.556C53.684 30.0894 54.048 29.4734 54.048 28.708C54.048 28.148 53.8426 27.6907 53.432 27.336C53.04 26.9627 52.536 26.6734 51.92 26.468C51.304 26.2627 50.464 26.0294 49.4 25.768C47.9066 25.4134 46.6933 25.0587 45.76 24.704C44.8453 24.3494 44.052 23.7987 43.38 23.052C42.7266 22.2867 42.4 21.26 42.4 19.972C42.4 18.8894 42.6893 17.9094 43.268 17.032C43.8653 16.136 44.752 15.4267 45.928 14.904C47.1226 14.3814 48.5786 14.12 50.296 14.12C51.4906 14.12 52.6666 14.2694 53.824 14.568C54.9813 14.8667 55.98 15.296 56.82 15.856L55.672 18.684C54.8133 18.18 53.9173 17.7974 52.984 17.536C52.0506 17.2747 51.1453 17.144 50.268 17.144C48.8306 17.144 47.7573 17.3867 47.048 17.872C46.3573 18.3574 46.012 19.0014 46.012 19.804C46.012 20.364 46.208 20.8214 46.6 21.176C47.0106 21.5307 47.524 21.8107 48.14 22.016C48.756 22.2214 49.596 22.4547 50.66 22.716C52.116 23.052 53.3106 23.4067 54.244 23.78C55.1773 24.1347 55.9706 24.6854 56.624 25.432C57.296 26.1787 57.632 27.1867 57.632 28.456C57.632 29.5387 57.3333 30.5187 56.736 31.396C56.1573 32.2734 55.2706 32.9734 54.076 33.496C52.8813 34.0187 51.4253 34.28 49.708 34.28Z" fill="#101828"/>
<path d="M60.9053 19.048H64.4053V34H60.9053V19.048ZM62.6693 16.584C62.0347 16.584 61.5027 16.388 61.0733 15.996C60.644 15.5854 60.4293 15.0814 60.4293 14.484C60.4293 13.8867 60.644 13.392 61.0733 13C61.5027 12.5894 62.0347 12.384 62.6693 12.384C63.304 12.384 63.836 12.58 64.2653 12.972C64.6947 13.3454 64.9093 13.8214 64.9093 14.4C64.9093 15.016 64.6947 15.5387 64.2653 15.968C63.8547 16.3787 63.3227 16.584 62.6693 16.584Z" fill="#101828"/>
<path d="M73.6191 34.196C72.4058 34.196 71.2204 34.0374 70.0631 33.72C68.9058 33.4027 67.9818 33.0014 67.2911 32.516L68.6351 29.856C69.3071 30.304 70.1098 30.668 71.0431 30.948C71.9951 31.2094 72.9284 31.34 73.8431 31.34C75.9338 31.34 76.9791 30.7894 76.9791 29.688C76.9791 29.1654 76.7084 28.8014 76.1671 28.596C75.6444 28.3907 74.7951 28.1947 73.6191 28.008C72.3871 27.8214 71.3791 27.6067 70.5951 27.364C69.8298 27.1214 69.1578 26.7014 68.5791 26.104C68.0191 25.488 67.7391 24.6387 67.7391 23.556C67.7391 22.1374 68.3271 21.008 69.5031 20.168C70.6978 19.3094 72.3031 18.88 74.3191 18.88C75.3458 18.88 76.3724 19.0014 77.3991 19.244C78.4258 19.468 79.2658 19.776 79.9191 20.168L78.5751 22.828C77.3058 22.0814 75.8778 21.708 74.2911 21.708C73.2644 21.708 72.4804 21.8667 71.9391 22.184C71.4164 22.4827 71.1551 22.884 71.1551 23.388C71.1551 23.948 71.4351 24.3494 71.9951 24.592C72.5738 24.816 73.4604 25.0307 74.6551 25.236C75.8498 25.4227 76.8298 25.6374 77.5951 25.88C78.3604 26.1227 79.0138 26.5334 79.5551 27.112C80.1151 27.6907 80.3951 28.512 80.3951 29.576C80.3951 30.976 79.7884 32.096 78.5751 32.936C77.3618 33.776 75.7098 34.196 73.6191 34.196Z" fill="#101828"/>
<path d="M97.1358 19.048L90.1358 35.204C89.4825 36.828 88.6891 37.9667 87.7558 38.62C86.8225 39.292 85.6931 39.628 84.3678 39.628C83.6211 39.628 82.8838 39.5067 82.1558 39.264C81.4278 39.0214 80.8305 38.6854 80.3638 38.256L81.7638 35.68C82.0998 35.9974 82.4918 36.2494 82.9398 36.436C83.4065 36.6227 83.8731 36.716 84.3398 36.716C84.9558 36.716 85.4598 36.5574 85.8518 36.24C86.2625 35.9227 86.6358 35.3907 86.9718 34.644L87.2238 34.056L80.6998 19.048H84.3398L89.0438 30.108L93.7758 19.048H97.1358Z" fill="#101828"/>
<path d="M107.611 18.88C109.067 18.88 110.365 19.1974 111.503 19.832C112.661 20.4667 113.566 21.3627 114.219 22.52C114.873 23.6774 115.199 25.012 115.199 26.524C115.199 28.036 114.873 29.38 114.219 30.556C113.566 31.7134 112.661 32.6094 111.503 33.244C110.365 33.8787 109.067 34.196 107.611 34.196C105.595 34.196 103.999 33.524 102.823 32.18V39.432H99.3233V19.048H102.655V21.008C103.234 20.2987 103.943 19.7667 104.783 19.412C105.642 19.0574 106.585 18.88 107.611 18.88ZM107.219 31.2C108.507 31.2 109.562 30.7707 110.383 29.912C111.223 29.0534 111.643 27.924 111.643 26.524C111.643 25.124 111.223 23.9947 110.383 23.136C109.562 22.2774 108.507 21.848 107.219 21.848C106.379 21.848 105.623 22.044 104.951 22.436C104.279 22.8094 103.747 23.3507 103.355 24.06C102.963 24.7694 102.767 25.5907 102.767 26.524C102.767 27.4574 102.963 28.2787 103.355 28.988C103.747 29.6974 104.279 30.248 104.951 30.64C105.623 31.0134 106.379 31.2 107.219 31.2Z" fill="#101828"/>
<path d="M127.003 18.88C128.888 18.88 130.4 19.4307 131.539 20.532C132.677 21.6334 133.247 23.2667 133.247 25.432V34H129.747V25.88C129.747 24.5734 129.439 23.5934 128.823 22.94C128.207 22.268 127.329 21.932 126.191 21.932C124.903 21.932 123.885 22.324 123.139 23.108C122.392 23.8734 122.019 24.984 122.019 26.44V34H118.519V13.224H122.019V20.784C122.597 20.168 123.307 19.7014 124.147 19.384C125.005 19.048 125.957 18.88 127.003 18.88Z" fill="#101828"/>
<path d="M152.163 19.048V34H148.831V32.096C148.271 32.768 147.571 33.2907 146.731 33.664C145.891 34.0187 144.985 34.196 144.015 34.196C142.017 34.196 140.44 33.6454 139.283 32.544C138.144 31.424 137.575 29.772 137.575 27.588V19.048H141.075V27.112C141.075 28.456 141.373 29.464 141.971 30.136C142.587 30.7894 143.455 31.116 144.575 31.116C145.825 31.116 146.815 30.7334 147.543 29.968C148.289 29.184 148.663 28.064 148.663 26.608V19.048H152.163Z" fill="#101828"/>
<path d="M161.365 34.196C160.152 34.196 158.966 34.0374 157.809 33.72C156.652 33.4027 155.728 33.0014 155.037 32.516L156.381 29.856C157.053 30.304 157.856 30.668 158.789 30.948C159.741 31.2094 160.674 31.34 161.589 31.34C163.68 31.34 164.725 30.7894 164.725 29.688C164.725 29.1654 164.454 28.8014 163.913 28.596C163.39 28.3907 162.541 28.1947 161.365 28.008C160.133 27.8214 159.125 27.6067 158.341 27.364C157.576 27.1214 156.904 26.7014 156.325 26.104C155.765 25.488 155.485 24.6387 155.485 23.556C155.485 22.1374 156.073 21.008 157.249 20.168C158.444 19.3094 160.049 18.88 162.065 18.88C163.092 18.88 164.118 19.0014 165.145 19.244C166.172 19.468 167.012 19.776 167.665 20.168L166.321 22.828C165.052 22.0814 163.624 21.708 162.037 21.708C161.01 21.708 160.226 21.8667 159.685 22.184C159.162 22.4827 158.901 22.884 158.901 23.388C158.901 23.948 159.181 24.3494 159.741 24.592C160.32 24.816 161.206 25.0307 162.401 25.236C163.596 25.4227 164.576 25.6374 165.341 25.88C166.106 26.1227 166.76 26.5334 167.301 27.112C167.861 27.6907 168.141 28.512 168.141 29.576C168.141 30.976 167.534 32.096 166.321 32.936C165.108 33.776 163.456 34.196 161.365 34.196Z" fill="#101828"/>
</svg>
